<svg width="32" height="32" viewBox="0 0 32 32" fill="none" xmlns="http://www.w3.org/2000/svg">
<path d="M15.1382 29.0623L15.4841 28.4779L14.1933 27.7139L13.8473 28.2983L15.1382 29.0623ZM11.1832 28.4779L11.5291 29.0623L12.8199 28.2983L12.474 27.7139L11.1832 28.4779ZM13.8473 28.2983C13.6224 28.6784 13.0449 28.6784 12.8199 28.2983L11.5291 29.0623C12.3349 30.4237 14.3324 30.4237 15.1382 29.0623L13.8473 28.2983ZM11.7337 8.75H14.9337V7.25H11.7337V8.75ZM23.2503 17.0667V18.1334H24.7503V17.0667H23.2503ZM3.41699 18.1334V17.0667H1.91699V18.1334H3.41699ZM1.91699 18.1334C1.91699 19.3656 1.91659 20.3274 1.96948 21.1026C2.02283 21.8846 2.13291 22.5314 2.38006 23.1281L3.76588 22.554C3.60705 22.1706 3.51414 21.7061 3.466 21.0005C3.4174 20.2882 3.41699 19.3862 3.41699 18.1334H1.91699ZM8.41004 25.3637C7.34775 25.3297 6.73572 25.2372 6.24636 25.0345L5.67233 26.4203C6.42437 26.7318 7.26418 26.8278 8.36209 26.8629L8.41004 25.3637ZM2.38006 23.1281C2.99748 24.6186 4.18175 25.8029 5.67233 26.4203L6.24636 25.0345C5.12332 24.5693 4.23106 23.6771 3.76588 22.554L2.38006 23.1281ZM23.2503 18.1334C23.2503 19.3862 23.2499 20.2882 23.2013 21.0005C23.1532 21.7061 23.0603 22.1706 22.9014 22.554L24.2873 23.1281C24.5344 22.5314 24.6445 21.8846 24.6978 21.1026C24.7507 20.3274 24.7503 19.3656 24.7503 18.1334H23.2503ZM18.3052 26.8629C19.4031 26.8278 20.2429 26.7318 20.995 26.4203L20.421 25.0345C19.9316 25.2372 19.3195 25.3297 18.2572 25.3637L18.3052 26.8629ZM22.9014 22.554C22.4363 23.6771 21.544 24.5693 20.421 25.0345L20.995 26.4203C22.4856 25.8029 23.6698 24.6186 24.2873 23.1281L22.9014 22.554ZM14.9337 8.75C16.694 8.75 17.9616 8.75079 18.9511 8.84487C19.9294 8.93789 20.5582 9.11679 21.0618 9.4254L21.8455 8.14644C21.0666 7.66913 20.1812 7.45507 19.0931 7.35161C18.0161 7.24921 16.665 7.25 14.9337 7.25V8.75ZM24.7503 17.0667C24.7503 15.3354 24.7511 13.9842 24.6487 12.9073C24.5453 11.8191 24.3312 10.9337 23.8539 10.1548L22.5749 10.9386C22.8835 11.4422 23.0624 12.0709 23.1555 13.0492C23.2495 14.0387 23.2503 15.3063 23.2503 17.0667H24.7503ZM21.0618 9.4254C21.6785 9.80332 22.197 10.3218 22.5749 10.9386L23.8539 10.1548C23.3523 9.33626 22.6641 8.64805 21.8455 8.14644L21.0618 9.4254ZM11.7337 7.25C10.0024 7.25 8.6512 7.24921 7.57424 7.35161C6.48611 7.45507 5.60069 7.66913 4.82179 8.14644L5.60554 9.4254C6.10915 9.11679 6.73789 8.93789 7.71622 8.84487C8.70571 8.75079 9.97331 8.75 11.7337 8.75V7.25ZM3.41699 17.0667C3.41699 15.3063 3.41778 14.0387 3.51186 13.0492C3.60488 12.0709 3.78378 11.4422 4.09239 10.9386L2.81343 10.1548C2.33612 10.9337 2.12206 11.8191 2.0186 12.9073C1.9162 13.9842 1.91699 15.3354 1.91699 17.0667H3.41699ZM4.82179 8.14644C4.00325 8.64805 3.31504 9.33626 2.81343 10.1548L4.09239 10.9386C4.47031 10.3218 4.98883 9.80333 5.60554 9.4254L4.82179 8.14644ZM12.474 27.7139C12.2039 27.2575 11.9758 26.8707 11.7566 26.5688C11.5284 26.2547 11.2776 25.9855 10.9373 25.7843L10.1737 27.0753C10.2749 27.1352 10.3835 27.2308 10.5429 27.4503C10.7112 27.682 10.8989 27.9976 11.1832 28.4779L12.474 27.7139ZM8.36209 26.8629C8.95153 26.8818 9.34426 26.8951 9.64636 26.9319C9.93664 26.9673 10.077 27.0181 10.1737 27.0753L10.9373 25.7843C10.5925 25.5803 10.224 25.4913 9.82798 25.4429C9.44373 25.3961 8.97252 25.3817 8.41004 25.3637L8.36209 26.8629ZM15.4841 28.4779C15.7684 27.9976 15.956 27.682 16.1244 27.4503C16.2838 27.2308 16.3923 27.1352 16.4936 27.0753L15.7299 25.7843C15.3897 25.9855 15.1389 26.2547 14.9107 26.5688C14.6915 26.8707 14.4634 27.2575 14.1933 27.7139L15.4841 28.4779ZM18.2572 25.3637C17.6948 25.3817 17.2236 25.3961 16.8393 25.4429C16.4432 25.4913 16.0748 25.5803 15.7299 25.7843L16.4936 27.0753C16.5903 27.0181 16.7306 26.9673 17.0209 26.9319C17.323 26.8951 17.7157 26.8818 18.3052 26.8629L18.2572 25.3637Z" fill="white"/>
<path d="M17.8336 3.41675H20.8336V1.91675H17.8336V3.41675ZM28.5836 11.1668V12.1668H30.0836V11.1668H28.5836ZM28.5836 12.1668C28.5836 13.3419 28.5832 14.1857 28.5378 14.8515C28.4928 15.5106 28.4062 15.9404 28.2601 16.2932L29.6459 16.8672C29.8804 16.3012 29.9841 15.6891 30.0343 14.9536C30.084 14.2249 30.0836 13.3214 30.0836 12.1668H28.5836ZM28.2601 16.2932C27.8287 17.3346 27.0014 18.162 25.96 18.5933L26.534 19.9791C27.9429 19.3955 29.0623 18.2761 29.6459 16.8672L28.2601 16.2932ZM20.8336 3.41675C22.4848 3.41675 23.6706 3.41754 24.5955 3.50548C25.5093 3.59236 26.0907 3.75898 26.5542 4.04303L27.338 2.76407C26.5991 2.31132 25.761 2.10954 24.7375 2.01222C23.7251 1.91596 22.4558 1.91675 20.8336 1.91675V3.41675ZM30.0836 11.1668C30.0836 9.54458 30.0844 8.27527 29.9881 7.26287C29.8908 6.23932 29.689 5.40122 29.2363 4.66239L27.9573 5.44614C28.2414 5.90967 28.408 6.4911 28.4949 7.40485C28.5828 8.32977 28.5836 9.51554 28.5836 11.1668H30.0836ZM26.5542 4.04303C27.1261 4.39347 27.6069 4.87427 27.9573 5.44614L29.2363 4.66239C28.7621 3.8887 28.1116 3.23819 27.338 2.76407L26.5542 4.04303ZM17.8336 1.91675C16.2114 1.91675 14.9421 1.91596 13.9297 2.01222C12.9061 2.10954 12.068 2.31132 11.3292 2.76407L12.113 4.04303C12.5765 3.75898 13.1579 3.59236 14.0717 3.50548C14.9966 3.41754 16.1824 3.41675 17.8336 3.41675V1.91675ZM11.3292 2.76407C10.5555 3.23819 9.905 3.8887 9.43088 4.66239L10.7099 5.44614C11.0603 4.87427 11.5411 4.39347 12.113 4.04303L11.3292 2.76407ZM10.1269 8.03904C10.1941 6.74795 10.3629 6.01236 10.7099 5.44614L9.43088 4.66239C8.88173 5.55851 8.69937 6.60654 8.62891 7.96112L10.1269 8.03904ZM24.0252 20.3967C25.0411 20.3629 25.8272 20.2719 26.534 19.9791L25.96 18.5933C25.5139 18.7781 24.9534 18.865 23.9754 18.8975L24.0252 20.3967Z" fill="white"/>
<path d="M8.67871 17.3333H8.69071M13.333 17.3333H13.345M17.9877 17.3333H17.9997" stroke="white" stroke-width="2" stroke-linecap="round" stroke-linejoin="round"/>
</svg>
