<svg width="16" height="16" viewBox="0 0 16 16" fill="none" xmlns="http://www.w3.org/2000/svg">
<path fill-rule="evenodd" clip-rule="evenodd" d="M6.93256 2.76395C5.81679 2.05617 4.01483 1.38688 2.45869 2.97381C-1.23531 6.74091 5.09957 14 7.99967 14C10.8998 14 17.2347 6.74091 13.5407 2.97381C11.9845 1.3869 10.1826 2.05618 9.06682 2.76395C8.43636 3.16388 7.56302 3.16388 6.93256 2.76395ZM11.1623 3.53261C10.9042 3.43452 10.6154 3.56425 10.5173 3.82239C10.4192 4.08052 10.549 4.3693 10.8071 4.46739C11.0476 4.55877 11.2986 4.7136 11.5508 4.96363C11.8719 5.28205 12.0752 5.63105 12.1885 5.99849C12.2699 6.26237 12.5498 6.41032 12.8136 6.32895C13.0775 6.24758 13.2255 5.96769 13.1441 5.70381C12.9817 5.17712 12.6911 4.68599 12.2548 4.25349C11.9107 3.91229 11.5428 3.6772 11.1623 3.53261Z" fill="#E14040"/>
</svg>
