<svg width="24" height="24" viewBox="0 0 24 24" fill="none" xmlns="http://www.w3.org/2000/svg">
<path d="M4 10C4 6.22876 4 4.34315 5.17157 3.17157C6.34315 2 8.22876 2 12 2C15.7712 2 17.6569 2 18.8284 3.17157C20 4.34315 20 6.22876 20 10V14C20 17.7712 20 19.6569 18.8284 20.8284C17.6569 22 15.7712 22 12 22C8.22876 22 6.34315 22 5.17157 20.8284C4 19.6569 4 17.7712 4 14V10Z" stroke="#212121" stroke-width="1.5"/>
<path d="M15 19H9" stroke="#212121" stroke-width="1.5" stroke-linecap="round"/>
<path d="M16.7484 2.37744L16.6643 2.50361C15.9082 3.63769 15.5302 4.20476 14.978 4.54787C14.8682 4.61609 14.7541 4.67715 14.6365 4.73066C14.0447 4.99976 13.3632 4.99976 12.0002 4.99976C10.6371 4.99976 9.95564 4.99976 9.36387 4.73066C9.2462 4.67715 9.13211 4.61609 9.02232 4.54787C8.47016 4.20476 8.09213 3.63771 7.33606 2.50361L7.25195 2.37744" stroke="#212121" stroke-width="1.5" stroke-linecap="round"/>
</svg>
